<?xml version="1.0" encoding="UTF-8"?>
<svg width="20px" height="17px" viewBox="0 0 20 17" version="1.1" xmlns="http://www.w3.org/2000/svg" xmlns:xlink="http://www.w3.org/1999/xlink">
    <!-- Generator: Sketch 41.1 (35376) - http://www.bohemiancoding.com/sketch -->
    <title>car_marker</title>
    <desc>Created with Sketch.</desc>
    <defs></defs>
    <g id="icon-2" stroke="none" stroke-width="1" fill="none" fill-rule="evenodd">
        <g id="car_marker_green" fill="#0CAE00">
            <g id="Page-11">
                <g id="noun_172">
                    <path d="M18.185,5.7392 L16.5456,1.5058 C16.239,0.6954 15.569,0.0058 14.301,0 L11.989,0 L8.0376,0 L5.6854,0 C4.4232,0.0058 3.7532,0.6954 3.441,1.5058 L1.8012,5.7392 C1.1502,5.8232 -0.002,6.5882 1.59872132e-15,8.0374 L1.59872132e-15,13.4276 L1.5998,13.4276 L1.5998,15.1482 C1.5958,17.2694 4.5976,17.2442 4.5968,15.1482 L4.5968,13.4276 L10,13.4276 L15.3896,13.4276 L15.3896,15.1482 C15.3962,17.2442 18.398,17.2694 18.4,15.1482 L18.4,13.4276 L20,13.4276 L20,8.0374 C19.995,6.5882 18.842,5.8232 18.185,5.7392 Z M3.1454,10.1748 C2.3786,10.177 1.7578,9.5374 1.761,8.7508 C1.7578,7.9588 2.3786,7.3186 3.1454,7.3252 C3.9098,7.3186 4.5306,7.9588 4.5296,8.7508 C4.5306,9.5374 3.9096,10.1768 3.1454,10.1748 Z M10,5.6994 L9.9866,5.6994 L3.5082,5.6994 L4.7446,2.3658 C4.8938,1.8926 5.1254,1.554 5.6724,1.5458 L9.9866,1.5458 L10,1.5458 L14.328,1.5458 C14.8666,1.554 15.0988,1.8924 15.2552,2.3658 L16.4918,5.6994 L10,5.6994 Z M16.8548,10.1748 C16.0826,10.177 15.4614,9.5374 15.4572,8.7508 C15.4614,7.9588 16.0826,7.3186 16.8548,7.3252 C17.6138,7.3186 18.2344,7.9588 18.2392,8.7508 C18.2344,9.5374 17.6138,10.1768 16.8548,10.1748 Z" id="Shape"></path>
                </g>
            </g>
        </g>
    </g>
</svg>